<mxfile host="app.diagrams.net" agent="Mozilla/5.0 (Windows NT 10.0; Win64; x64) AppleWebKit/537.36 (KHTML, like Gecko) Chrome/125.0.0.0 Safari/537.36" version="25.0.3">
  <diagram name="Page-1" id="U6_Oa2vFWEiPgw_JRGue">
    <mxGraphModel dx="1434" dy="818" grid="1" gridSize="10" guides="1" tooltips="1" connect="1" arrows="1" fold="1" page="1" pageScale="1" pageWidth="827" pageHeight="1169" math="0" shadow="0">
      <root>
        <mxCell id="0" />
        <mxCell id="1" parent="0" />
        <mxCell id="OLrPpnFDmRsObOy_O8Oj-1" value="&lt;h1 style=&quot;margin-top: 0px;&quot;&gt;Phoneshop&lt;/h1&gt;&lt;p&gt;Desktop application to manage the phones and accessaries.&lt;/p&gt;&lt;p&gt;Create Use Case Diagram for this phone shop.&lt;/p&gt;" style="text;html=1;whiteSpace=wrap;overflow=hidden;rounded=0;" vertex="1" parent="1">
          <mxGeometry x="40" y="30" width="180" height="120" as="geometry" />
        </mxCell>
      </root>
    </mxGraphModel>
  </diagram>
</mxfile>
